<svg xmlns="http://www.w3.org/2000/svg" xmlns:xlink="http://www.w3.org/1999/xlink" width="475" height="78" viewBox="0 0 475 78">
  <defs>
    <path id="a" d="M241.363281,57.4453125 C242.274744,57.4453125 243.163407,57.2994806 244.029297,57.0078125 C244.895187,56.7161444 245.665361,56.3105495 246.339844,55.7910156 C247.014326,55.2714818 247.556639,54.6608108 247.966797,53.9589844 C248.376955,53.2571579 248.591146,52.4960979 248.609375,51.6757812 L253.394531,51.6757812 C253.376302,52.9882878 253.034509,54.2415305 252.369141,55.4355469 C251.703773,56.6295633 250.81511,57.6777299 249.703125,58.5800781 C248.59114,59.4824264 247.315111,60.2024713 245.875,60.7402344 C244.434889,61.2779975 242.930997,61.546875 241.363281,61.546875 C239.121083,61.546875 237.161467,61.1458373 235.484375,60.34375 C233.807283,59.5416627 232.408209,58.4615953 231.287109,57.1035156 C230.16601,55.7454359 229.322919,54.1777433 228.757812,52.4003906 C228.192706,50.623038 227.910156,48.7500098 227.910156,46.78125 L227.910156,45.6328125 C227.910156,43.6822819 228.192706,41.813811 228.757812,40.0273438 C229.322919,38.2408765 230.16601,36.6686266 231.287109,35.3105469 C232.408209,33.9524672 233.807283,32.8723998 235.484375,32.0703125 C237.161467,31.2682252 239.121083,30.8671875 241.363281,30.8671875 C243.11329,30.8671875 244.721998,31.1451795 246.189453,31.7011719 C247.656908,32.2571642 248.923823,33.0136671 249.990234,33.9707031 C251.056646,34.9277392 251.890622,36.0624934 252.492188,37.375 C253.093753,38.6875066 253.394531,40.0911384 253.394531,41.5859375 L248.609375,41.5859375 C248.591146,40.6927039 248.395184,39.8496133 248.021484,39.0566406 C247.647785,38.2636679 247.14193,37.5664093 246.503906,36.9648438 C245.865882,36.3632782 245.104822,35.8893246 244.220703,35.5429688 C243.336584,35.1966129 242.38412,35.0234375 241.363281,35.0234375 C239.795565,35.0234375 238.478521,35.3378875 237.412109,35.9667969 C236.345698,36.5957063 235.484378,37.4160106 234.828125,38.4277344 C234.171872,39.4394582 233.702475,40.5742125 233.419922,41.8320312 C233.137368,43.08985 232.996094,44.3567645 232.996094,45.6328125 L232.996094,46.78125 C232.996094,48.0755273 233.137368,49.3561135 233.419922,50.6230469 C233.702475,51.8899803 234.167314,53.0292918 234.814453,54.0410156 C235.461592,55.0527394 236.318354,55.8730437 237.384766,56.5019531 C238.451177,57.1308625 239.777336,57.4453125 241.363281,57.4453125 Z M260.941406,45.9335938 C260.941406,43.8007706 261.251299,41.8183685 261.871094,39.9863281 C262.490889,38.1542877 263.379552,36.5638088 264.537109,35.2148438 C265.694667,33.8658787 267.102856,32.8040403 268.761719,32.0292969 C270.420581,31.2545534 272.289052,30.8671875 274.367188,30.8671875 C276.463552,30.8671875 278.345695,31.2545534 280.013672,32.0292969 C281.681649,32.8040403 283.094395,33.8658787 284.251953,35.2148438 C285.409511,36.5638088 286.298174,38.1542877 286.917969,39.9863281 C287.537764,41.8183685 287.847656,43.8007706 287.847656,45.9335938 L287.847656,46.5351562 C287.847656,48.6679794 287.537764,50.6458242 286.917969,52.46875 C286.298174,54.2916758 285.409511,55.8775974 284.251953,57.2265625 C283.094395,58.5755276 281.686206,59.6328087 280.027344,60.3984375 C278.368481,61.1640663 276.50001,61.546875 274.421875,61.546875 C272.32551,61.546875 270.443368,61.1640663 268.775391,60.3984375 C267.107414,59.6328087 265.694667,58.5755276 264.537109,57.2265625 C263.379552,55.8775974 262.490889,54.2916758 261.871094,52.46875 C261.251299,50.6458242 260.941406,48.6679794 260.941406,46.5351562 L260.941406,45.9335938 Z M266,46.5351562 C266,47.9934969 266.173175,49.3834569 266.519531,50.7050781 C266.865887,52.0266993 267.38997,53.1887971 268.091797,54.1914062 C268.793623,55.1940154 269.673172,55.9869762 270.730469,56.5703125 C271.787766,57.1536488 273.018222,57.4453125 274.421875,57.4453125 C275.807299,57.4453125 277.024083,57.1536488 278.072266,56.5703125 C279.120448,55.9869762 279.995439,55.1940154 280.697266,54.1914062 C281.399092,53.1887971 281.923175,52.0266993 282.269531,50.7050781 C282.615887,49.3834569 282.789062,47.9934969 282.789062,46.5351562 L282.789062,45.9335938 C282.789062,44.4934824 282.61133,43.1126368 282.255859,41.7910156 C281.900389,40.4693944 281.371748,39.3072967 280.669922,38.3046875 C279.968095,37.3020783 279.093104,36.5045603 278.044922,35.9121094 C276.99674,35.3196585 275.77084,35.0234375 274.367188,35.0234375 C272.963535,35.0234375 271.742193,35.3196585 270.703125,35.9121094 C269.664057,36.5045603 268.793623,37.3020783 268.091797,38.3046875 C267.38997,39.3072967 266.865887,40.4693944 266.519531,41.7910156 C266.173175,43.1126368 266,44.4934824 266,45.9335938 L266,46.5351562 Z M300.507812,31.4140625 L300.863281,35.7890625 C301.938807,34.2578048 303.260409,33.0592491 304.828125,32.1933594 C306.395841,31.3274696 308.145824,30.8854168 310.078125,30.8671875 C311.627612,30.8671875 313.035801,31.0859353 314.302734,31.5234375 C315.569668,31.9609397 316.649735,32.6445266 317.542969,33.5742188 C318.436202,34.5039109 319.124347,35.6842376 319.607422,37.1152344 C320.090497,38.5462311 320.332031,40.2460839 320.332031,42.2148438 L320.332031,61 L315.273438,61 L315.273438,42.3242188 C315.273438,41.0117122 315.127606,39.8997441 314.835938,38.9882812 C314.544269,38.0768184 314.111331,37.3385445 313.537109,36.7734375 C312.962888,36.2083305 312.261072,35.7981784 311.431641,35.5429688 C310.602209,35.2877591 309.649745,35.1601562 308.574219,35.1601562 C306.878898,35.1601562 305.388678,35.5839801 304.103516,36.4316406 C302.818353,37.2793011 301.792973,38.3958264 301.027344,39.78125 L301.027344,61 L295.96875,61 L295.96875,31.4140625 L300.507812,31.4140625 Z M337.121094,61 L337.121094,35.3242188 L328.972656,35.3242188 L328.972656,31.4140625 L337.121094,31.4140625 L337.121094,29.3359375 C337.121094,27.4400947 337.399086,25.7766999 337.955078,24.3457031 C338.51107,22.9147064 339.294917,21.7161507 340.306641,20.75 C341.318364,19.7838493 342.535149,19.05469 343.957031,18.5625 C345.378913,18.07031 346.964835,17.8242188 348.714844,17.8242188 C349.917975,17.8242188 351.089187,17.9244782 352.228516,18.125 C353.367844,18.3255218 354.539056,18.5807276 355.742188,18.890625 L355.140625,23.0742188 C354.393225,22.8190091 353.522791,22.5957041 352.529297,22.4042969 C351.535802,22.2128897 350.473964,22.1171875 349.34375,22.1171875 C346.973946,22.1354168 345.192063,22.7369732 343.998047,23.921875 C342.80403,25.1067768 342.207031,26.9114462 342.207031,29.3359375 L342.207031,31.4140625 L353.609375,31.4140625 L353.609375,35.3242188 L342.207031,35.3242188 L342.207031,61 L337.121094,61 Z"/>
  </defs>
  <g fill="none" fill-rule="evenodd">
    <rect width="475" height="78" fill="#394351"/>
    <path fill="#FFF" fill-rule="nonzero" d="M178.860695,1.96776741 C177.59355,0.699837767 175.872994,-0.00888705656 174.080374,-2.20268248e-13 L6.70806428,-2.20268248e-13 C3.00371544,-2.20268248e-13 0,3.00443944 0,6.70954516 L0,70.2904352 C0,73.9965378 3.00371544,77 6.70806428,77 L174.080374,77 C175.872994,77.0098643 177.59355,76.3011394 178.860695,75.032213 L209.076011,43.3269944 C211.64133,40.7173719 211.64133,36.3623525 209.076011,33.7517332 L178.860695,1.96776741 Z M120.585012,21.2129856 C121.380732,20.4643888 122.444693,20.0676624 123.536681,20.1105248 C124.226304,20.1204928 124.902916,20.303904 125.503459,20.6418192 C126.129024,20.9827248 126.657502,21.4771376 127.038847,22.0782081 C127.419191,22.6643265 127.61737,23.3491281 127.609362,24.0458913 C127.620372,24.7446482 127.421192,25.4304466 127.038847,26.0145714 C126.654499,26.6076674 126.126022,27.0951026 125.503459,27.4310242 C124.23231,28.1427395 122.682909,28.1427395 121.41176,27.4310242 C120.796203,27.1000866 120.280737,26.6106578 119.915407,26.0145714 C119.546073,25.4254626 119.3549,24.7416578 119.36591,24.0458913 C119.342889,22.9693473 119.787291,21.9366625 120.585012,21.2129856 L120.585012,21.2129856 Z M42.496418,53.9179947 C41.4224471,56.0182524 39.7969776,57.7875724 37.7951679,59.0345693 C33.7304933,61.5195918 28.6178714,61.5195918 24.5531968,59.0345693 C22.5583934,57.784582 20.9399303,56.0162588 19.869963,53.9179947 C18.6979034,51.5745178 18.1113732,48.9818409 18.1584157,46.3612537 C18.1303904,43.8333688 18.7329351,41.3373815 19.9099992,39.1005622 C21.00599,36.9863494 22.6424694,35.2010805 24.6522864,33.9251765 C28.6499003,31.4072596 33.7374997,31.4072596 37.7351136,33.9251765 C39.7449305,35.2010805 41.38141,36.9863494 42.4763999,39.1005622 C43.6544649,41.3373815 44.2570096,43.8333688 44.2279834,46.3612537 C44.2690205,48.9838345 43.6754839,51.5765114 42.496418,53.9179947 L42.496418,53.9179947 Z M70.7899962,41.5317575 C69.1565195,39.1195014 66.4140402,37.4448774 63.3913075,37.6442374 C62.082124,37.6322758 60.8019667,38.0319926 59.7319994,38.7855734 C58.5829607,39.5610838 57.6601264,40.6276599 57.0565808,41.8746567 C56.3879763,43.3927832 56.0596795,45.0375032 56.0917085,46.6961785 C56.0897067,48.2372313 56.4180035,49.7603418 57.0565808,51.1628394 C57.5950676,52.3899003 58.4758638,53.4355435 59.5938746,54.1741723 C60.7018762,54.8858875 61.9950453,55.2557003 63.3122361,55.2357643 C64.3221491,55.1849275 65.0518087,55.1071771 65.501215,55.0005195 C65.8645434,54.9137979 66.3559877,54.7044699 66.9715442,54.3705419 C68.2797268,53.7066731 69.4217592,52.7587163 70.3165682,51.5964474 L74.1330184,56.0033004 C72.7687851,57.5862188 71.0682477,58.8431837 69.1565195,59.6834861 C67.2908328,60.4829197 65.2810159,60.8846301 63.2531827,60.8636973 C60.7709387,60.9035693 58.3227254,60.2715981 56.17078,59.0345693 C54.0858952,57.8124924 52.3823551,56.0342012 51.2523336,53.8980587 C50.0532496,51.6253546 49.4446994,49.0884985 49.480732,46.5187481 C49.4497039,43.9440136 50.0572532,41.4021735 51.2523336,39.1195014 C52.3803533,36.9574422 54.0818916,35.1462565 56.17078,33.8863013 C58.3407417,32.571522 60.8349966,31.8897108 63.3712894,31.9176212 C65.5592674,31.903666 67.7222228,32.3741556 69.7060162,33.2951988 C71.59072,34.1484597 73.1991741,35.5120821 74.3502147,37.2305654 L70.7899962,41.5317575 Z M103.586645,60.0184109 L81.9440798,60.0184109 L81.9440798,54.9217723 L89.4598743,54.9217723 L89.4598743,25.5809634 L82.3574535,25.5809634 L82.3574535,20.4065744 L96.1299042,20.4065744 L96.1299042,54.9217723 L103.586645,54.9217723 L103.586645,60.0184109 Z M133.215431,60.0184109 L114.113162,60.0184109 L114.113162,54.7443419 L120.70412,54.7443419 L120.70412,37.8994182 L114.387409,37.8994182 L114.387409,32.626346 L127.215006,32.626346 L127.215006,54.7443419 L133.118343,54.7443419 L133.215431,60.0184109 Z M165.482601,28.0211299 C164.578784,27.1449426 163.559863,26.3973426 162.452862,25.7982658 C161.572066,25.3925682 160.610196,25.1902178 159.639318,25.2071634 C158.107934,25.0985122 156.60958,25.692605 155.567638,26.8209826 C154.553721,28.1935763 154.06628,29.8821555 154.190392,31.5826964 L154.190392,32.7050932 L162.589986,32.7050932 L162.589986,37.9193542 L154.229428,37.9193542 L154.229428,60.0184109 L147.834647,60.0184109 L147.834647,37.840607 L141.932311,37.840607 L141.932311,32.626346 L147.834647,32.626346 L147.834647,31.48501 C147.770589,29.2880627 148.293061,27.1150386 149.350017,25.1872274 C150.310885,23.5126033 151.731169,22.1469873 153.442717,21.2518608 C155.202307,20.3358016 157.162079,19.8683024 159.147874,19.8942192 C162.574972,19.855344 165.865948,21.2379056 168.237091,23.7119633 L165.482601,28.0211299 Z M36.7912603,41.5008567 C37.3377544,43.0548679 37.5969887,44.6956008 37.5579535,46.3423145 C37.5849779,47.9810537 37.3247426,49.6128154 36.7912603,51.1628394 C36.3648749,52.4357531 35.5951791,53.5671211 34.5682507,54.4293531 C33.6043793,55.2038667 32.3992899,55.6145484 31.1641733,55.5906252 C29.9490748,55.6175388 28.7640035,55.2138347 27.8191493,54.4492891 C26.7952236,53.6109803 26.0195224,52.5085195 25.5771224,51.2615226 C25.0386356,49.6786042 24.7794013,48.0139481 24.8094284,46.3423145 C24.7743968,44.7005848 25.0406374,43.0658327 25.5961396,41.5207927 C26.0265287,40.2937319 26.7882173,39.2102102 27.7991312,38.3918374 C28.7780161,37.6751382 29.9730965,37.3202774 31.1831905,37.3880598 C32.4072971,37.3591526 33.6053802,37.740927 34.5872679,38.4705846 C35.5891736,39.2550662 36.352864,40.3046967 36.7912603,41.5008567 L36.7912603,41.5008567 Z"/>
    <path fill="#FFF" fill-rule="nonzero" d="M370.904981,1.96776741 C369.639581,0.699837767 367.921397,-0.00888705656 366.131246,-2.84217094e-14 L177,-2.84217094e-14 L177,77 L366.131246,77 C367.921397,77.0098643 369.639581,76.3011394 370.904981,75.032213 L401.078662,43.3269944 C403.640446,40.7173719 403.640446,36.3623525 401.078662,33.7517332 L370.904981,1.96776741 Z" opacity=".2"/>
    <g fill-rule="nonzero">
      <use fill="#000" xlink:href="#a"/>
      <use fill="#FFF" xlink:href="#a"/>
    </g>
    <path fill="#FFF" fill-rule="nonzero" d="M475,73.6398579 C475,75.4959265 473.564876,77 471.793488,77 L418.206512,77 C416.436125,77 415,75.4959265 415,73.6398579 L415,70.3611865 C415,68.505118 416.436125,67 418.206512,67 L471.813504,67 C473.576885,67.0114895 475,68.5124295 475,70.3611865 L475,73.6398579 Z"/>
  </g>
</svg>
