<svg xmlns="http://www.w3.org/2000/svg" width="475" height="78" viewBox="0 0 475 78">
  <g fill="none" fill-rule="evenodd">
    <rect width="475" height="78" fill="#394351"/>
    <path fill="#FFF" fill-rule="nonzero" d="M178.860695,1.96776741 C177.59355,0.699837767 175.872994,-0.00888705656 174.080374,-2.20268248e-13 L6.70806428,-2.20268248e-13 C3.00371544,-2.20268248e-13 0,3.00443944 0,6.70954516 L0,70.2904352 C0,73.9965378 3.00371544,77 6.70806428,77 L174.080374,77 C175.872994,77.0098643 177.59355,76.3011394 178.860695,75.032213 L209.076011,43.3269944 C211.64133,40.7173719 211.64133,36.3623525 209.076011,33.7517332 L178.860695,1.96776741 Z M120.585012,21.2129856 C121.380732,20.4643888 122.444693,20.0676624 123.536681,20.1105248 C124.226304,20.1204928 124.902916,20.303904 125.503459,20.6418192 C126.129024,20.9827248 126.657502,21.4771376 127.038847,22.0782081 C127.419191,22.6643265 127.61737,23.3491281 127.609362,24.0458913 C127.620372,24.7446482 127.421192,25.4304466 127.038847,26.0145714 C126.654499,26.6076674 126.126022,27.0951026 125.503459,27.4310242 C124.23231,28.1427395 122.682909,28.1427395 121.41176,27.4310242 C120.796203,27.1000866 120.280737,26.6106578 119.915407,26.0145714 C119.546073,25.4254626 119.3549,24.7416578 119.36591,24.0458913 C119.342889,22.9693473 119.787291,21.9366625 120.585012,21.2129856 L120.585012,21.2129856 Z M42.496418,53.9179947 C41.4224471,56.0182524 39.7969776,57.7875724 37.7951679,59.0345693 C33.7304933,61.5195918 28.6178714,61.5195918 24.5531968,59.0345693 C22.5583934,57.784582 20.9399303,56.0162588 19.869963,53.9179947 C18.6979034,51.5745178 18.1113732,48.9818409 18.1584157,46.3612537 C18.1303904,43.8333688 18.7329351,41.3373815 19.9099992,39.1005622 C21.00599,36.9863494 22.6424694,35.2010805 24.6522864,33.9251765 C28.6499003,31.4072596 33.7374997,31.4072596 37.7351136,33.9251765 C39.7449305,35.2010805 41.38141,36.9863494 42.4763999,39.1005622 C43.6544649,41.3373815 44.2570096,43.8333688 44.2279834,46.3612537 C44.2690205,48.9838345 43.6754839,51.5765114 42.496418,53.9179947 L42.496418,53.9179947 Z M70.7899962,41.5317575 C69.1565195,39.1195014 66.4140402,37.4448774 63.3913075,37.6442374 C62.082124,37.6322758 60.8019667,38.0319926 59.7319994,38.7855734 C58.5829607,39.5610838 57.6601264,40.6276599 57.0565808,41.8746567 C56.3879763,43.3927832 56.0596795,45.0375032 56.0917085,46.6961785 C56.0897067,48.2372313 56.4180035,49.7603418 57.0565808,51.1628394 C57.5950676,52.3899003 58.4758638,53.4355435 59.5938746,54.1741723 C60.7018762,54.8858875 61.9950453,55.2557003 63.3122361,55.2357643 C64.3221491,55.1849275 65.0518087,55.1071771 65.501215,55.0005195 C65.8645434,54.9137979 66.3559877,54.7044699 66.9715442,54.3705419 C68.2797268,53.7066731 69.4217592,52.7587163 70.3165682,51.5964474 L74.1330184,56.0033004 C72.7687851,57.5862188 71.0682477,58.8431837 69.1565195,59.6834861 C67.2908328,60.4829197 65.2810159,60.8846301 63.2531827,60.8636973 C60.7709387,60.9035693 58.3227254,60.2715981 56.17078,59.0345693 C54.0858952,57.8124924 52.3823551,56.0342012 51.2523336,53.8980587 C50.0532496,51.6253546 49.4446994,49.0884985 49.480732,46.5187481 C49.4497039,43.9440136 50.0572532,41.4021735 51.2523336,39.1195014 C52.3803533,36.9574422 54.0818916,35.1462565 56.17078,33.8863013 C58.3407417,32.571522 60.8349966,31.8897108 63.3712894,31.9176212 C65.5592674,31.903666 67.7222228,32.3741556 69.7060162,33.2951988 C71.59072,34.1484597 73.1991741,35.5120821 74.3502147,37.2305654 L70.7899962,41.5317575 Z M103.586645,60.0184109 L81.9440798,60.0184109 L81.9440798,54.9217723 L89.4598743,54.9217723 L89.4598743,25.5809634 L82.3574535,25.5809634 L82.3574535,20.4065744 L96.1299042,20.4065744 L96.1299042,54.9217723 L103.586645,54.9217723 L103.586645,60.0184109 Z M133.215431,60.0184109 L114.113162,60.0184109 L114.113162,54.7443419 L120.70412,54.7443419 L120.70412,37.8994182 L114.387409,37.8994182 L114.387409,32.626346 L127.215006,32.626346 L127.215006,54.7443419 L133.118343,54.7443419 L133.215431,60.0184109 Z M165.482601,28.0211299 C164.578784,27.1449426 163.559863,26.3973426 162.452862,25.7982658 C161.572066,25.3925682 160.610196,25.1902178 159.639318,25.2071634 C158.107934,25.0985122 156.60958,25.692605 155.567638,26.8209826 C154.553721,28.1935763 154.06628,29.8821555 154.190392,31.5826964 L154.190392,32.7050932 L162.589986,32.7050932 L162.589986,37.9193542 L154.229428,37.9193542 L154.229428,60.0184109 L147.834647,60.0184109 L147.834647,37.840607 L141.932311,37.840607 L141.932311,32.626346 L147.834647,32.626346 L147.834647,31.48501 C147.770589,29.2880627 148.293061,27.1150386 149.350017,25.1872274 C150.310885,23.5126033 151.731169,22.1469873 153.442717,21.2518608 C155.202307,20.3358016 157.162079,19.8683024 159.147874,19.8942192 C162.574972,19.855344 165.865948,21.2379056 168.237091,23.7119633 L165.482601,28.0211299 Z M36.7912603,41.5008567 C37.3377544,43.0548679 37.5969887,44.6956008 37.5579535,46.3423145 C37.5849779,47.9810537 37.3247426,49.6128154 36.7912603,51.1628394 C36.3648749,52.4357531 35.5951791,53.5671211 34.5682507,54.4293531 C33.6043793,55.2038667 32.3992899,55.6145484 31.1641733,55.5906252 C29.9490748,55.6175388 28.7640035,55.2138347 27.8191493,54.4492891 C26.7952236,53.6109803 26.0195224,52.5085195 25.5771224,51.2615226 C25.0386356,49.6786042 24.7794013,48.0139481 24.8094284,46.3423145 C24.7743968,44.7005848 25.0406374,43.0658327 25.5961396,41.5207927 C26.0265287,40.2937319 26.7882173,39.2102102 27.7991312,38.3918374 C28.7780161,37.6751382 29.9730965,37.3202774 31.1831905,37.3880598 C32.4072971,37.3591526 33.6053802,37.740927 34.5872679,38.4705846 C35.5891736,39.2550662 36.352864,40.3046967 36.7912603,41.5008567 L36.7912603,41.5008567 Z"/>
    <path fill="#FFF" fill-rule="nonzero" d="M370.904981,1.96776741 C369.639581,0.699837767 367.921397,-0.00888705656 366.131246,-2.84217094e-14 L177,-2.84217094e-14 L177,77 L366.131246,77 C367.921397,77.0098643 369.639581,76.3011394 370.904981,75.032213 L401.078662,43.3269944 C403.640446,40.7173719 403.640446,36.3623525 401.078662,33.7517332 L370.904981,1.96776741 Z" opacity=".2"/>
    <text fill="#FFF" font-family="RobotoMono-Regular, Roboto Mono" font-size="56">
      <tspan x="224" y="61">conf</tspan>
    </text>
    <path fill="#FFF" fill-rule="nonzero" d="M475,73.6398579 C475,75.4959265 473.564876,77 471.793488,77 L418.206512,77 C416.436125,77 415,75.4959265 415,73.6398579 L415,70.3611865 C415,68.505118 416.436125,67 418.206512,67 L471.813504,67 C473.576885,67.0114895 475,68.5124295 475,70.3611865 L475,73.6398579 Z"/>
  </g>
</svg>
