<svg xmlns="http://www.w3.org/2000/svg" width="96" height="96" viewBox="0 0 96 96">
  <g fill="none" fill-rule="evenodd" transform="translate(13 18)">
    <g transform="translate(37.816 .02)">
      <path fill="#FEFEFE" d="M21.8144943,18.6294095 L25.9034598,13.1448014 C26.4425402,12.4216527 26.518977,11.4577203 26.1062184,10.6564365 C22.2192069,3.11001757 15.9240345,-2.5643473 8.20633333,2.61649054 C7.95208046,2.78711216 7.69621839,2.96570676 7.43955172,3.15386892 L6.12403448,2.85169324 C3.85828736,2.56386892 1.06552874,6.47939595 0.717137931,7.79972027 C-0.220218391,11.3516797 4.55265517,14.744977 4.16242529,17.9676527"/>
      <path stroke="#D3D3D3" stroke-linecap="round" stroke-linejoin="round" stroke-width="1.28" d="M21.8144943,18.6294095 L25.9034598,13.1448014 C26.4425402,12.4216527 26.518977,11.4577203 26.1062184,10.6564365 C22.2192069,3.11001757 15.9240345,-2.5643473 8.20633333,2.61649054 C7.95208046,2.78711216 7.69621839,2.96570676 7.43955172,3.15386892 L6.12403448,2.85169324 C3.85828736,2.56386892 1.06552874,6.47939595 0.717137931,7.79972027 C-0.220218391,11.3516797 4.55265517,14.744977 4.16242529,17.9676527"/>
    </g>
    <path fill="#FEFEFE" d="M60.0266092,17.4253311 C58.8084483,12.5004257 54.7637356,8.57931757 52.481092,6.69291216 C51.3538506,5.76166892 49.8347701,5.41803378 48.4315517,5.84299324 C45.7208621,6.66341216 41.7260345,9.25781757 41.7260345,17.4253311 C41.7260345,21.6932635 44.1076437,26.0090338 45.8584483,28.6042365 C46.7483333,29.9245608 46.2366092,31.7184797 44.7891379,32.3961824 L33.6776437,37.6041284 C31.5333908,38.7426689 32.3444253,41.9868716 34.7743103,41.9868716 L66.9783333,41.9868716 C69.4082184,41.9868716 70.2200575,38.7426689 68.075,37.6041284 L56.9643103,32.3961824 C55.5168391,31.7184797 55.0043103,29.9245608 55.8941954,28.6050338 C57.645,26.0090338 60.0266092,21.6932635 60.0266092,17.4253311"/>
    <path stroke="#D3D3D3" stroke-linecap="round" stroke-linejoin="round" stroke-width="1.28" d="M60.0266092,17.4253311 C58.8084483,12.5004257 54.7637356,8.57931757 52.481092,6.69291216 C51.3538506,5.76166892 49.8347701,5.41803378 48.4315517,5.84299324 C45.7208621,6.66341216 41.7260345,9.25781757 41.7260345,17.4253311 C41.7260345,21.6932635 44.1076437,26.0090338 45.8584483,28.6042365 C46.7483333,29.9245608 46.2366092,31.7184797 44.7891379,32.3961824 L33.6776437,37.6041284 C31.5333908,38.7426689 32.3444253,41.9868716 34.7743103,41.9868716 L66.9783333,41.9868716 C69.4082184,41.9868716 70.2200575,38.7426689 68.075,37.6041284 L56.9643103,32.3961824 C55.5168391,31.7184797 55.0043103,29.9245608 55.8941954,28.6050338 C57.645,26.0090338 60.0266092,21.6932635 60.0266092,17.4253311 Z"/>
    <path fill="#FEFEFE" d="M31.4555057,15.8159865 C31.6268851,15.7617703 31.7894138,15.6748649 31.927,15.5488919 C32.4153908,15.1008108 32.4202184,14.3688919 31.9374598,13.9152297 C31.8296437,13.8131757 31.704931,13.7382297 31.572977,13.6816216 C31.6638966,13.6337838 31.7515977,13.5771757 31.8296437,13.5062162 C32.3180345,13.0573378 32.3228621,12.3262162 31.8401034,11.8725541 C31.6727471,11.7146892 31.4683793,11.6158243 31.2527471,11.5663919 C31.2768851,11.5472568 31.3042414,11.5321081 31.3267701,11.5113784 C31.8151609,11.0625 31.8199885,10.3313784 31.3372299,9.87771622 C31.1038966,9.65845946 30.8005632,9.54763514 30.4932069,9.53806757 C30.9003333,9.0867973 30.8834368,8.41547297 30.4288391,7.98812162 C30.1198736,7.69710811 29.687,7.59345946 29.2863103,7.67159459 C29.5783793,7.22909459 29.5244713,6.64387838 29.1133218,6.25878378 C28.7279195,5.89681081 28.1526322,5.82585135 27.6859655,6.03633784 C27.8766552,5.61855405 27.7913678,5.11705405 27.4260805,4.77341892 C27.0020575,4.37477027 26.3422874,4.32374324 25.8571149,4.62193243 C25.9061954,4.27989189 25.7951609,3.92190541 25.5135517,3.6572027 C25.0420575,3.21390541 24.2825172,3.20354054 23.7917126,3.61972973 C23.7651609,3.3637973 23.6541264,3.11344595 23.4433218,2.91651351 C22.9605632,2.46285135 22.1736667,2.45886486 21.6844713,2.90774324 C21.6434368,2.94441892 21.6112529,2.98667568 21.5766552,3.02893243 C21.5195287,2.85512162 21.422977,2.69008108 21.2765402,2.55135135 C20.7937816,2.09768919 20.0060805,2.0937027 19.5176897,2.54258108 C19.4187241,2.63267568 19.3455057,2.73632432 19.2867701,2.84395946 C19.2304483,2.7435 19.1628621,2.64702703 19.0719425,2.56171622 C18.5891839,2.10885135 17.8014828,2.10406757 17.313092,2.55214865 C17.1537816,2.69964865 17.0507931,2.87744595 16.9936667,3.06640541 C16.9614828,3.02574324 16.9301034,2.98428378 16.8906782,2.94681081 C16.4087241,2.49394595 15.621023,2.48916216 15.1326322,2.93804054 C14.9057356,3.14533784 14.7874598,3.41482432 14.7697586,3.68909459 C14.2853908,3.25616216 13.5161954,3.25616216 13.035046,3.69786486 C12.7317126,3.97532432 12.6166552,4.36201351 12.6858506,4.72398649 C12.2014828,4.3955 11.5215977,4.42898649 11.0814828,4.83321622 C10.6896437,5.192 10.6148161,5.73097297 10.8465402,6.1647027 C10.3718276,5.90318919 9.75067816,5.95660811 9.34113793,6.33293243 C8.91067816,6.72839189 8.85596552,7.34071622 9.1786092,7.79198649 C8.76021839,7.68116216 8.29355172,7.77125676 7.96205747,8.07582432 C7.4953908,8.50397297 7.47527586,9.18805405 7.89527586,9.64331081 C7.5678046,9.63454054 7.23631034,9.74377027 6.98527586,9.97418919 C6.49608046,10.4222703 6.49205747,11.1541892 6.97401149,11.6078514 C6.99734483,11.6285811 7.02228736,11.6437297 7.04562069,11.6620676 C6.81309195,11.7043243 6.59102299,11.807973 6.40998851,11.9738108 C5.9215977,12.4218919 5.91677011,13.1538108 6.39952874,13.6066757 C6.47033333,13.6736486 6.54998851,13.7286622 6.63205747,13.7749054 C6.48964368,13.8315135 6.35527586,13.9104459 6.2378046,14.0180811 C5.74941379,14.4669595 5.7453908,15.1980811 6.22814943,15.6517432 C6.35366667,15.7689459 6.49929885,15.8558514 6.6553908,15.9124595 C6.59102299,15.9531216 6.52826437,15.9985676 6.47033333,16.0511892 C5.98194253,16.4992703 5.97711494,17.2303919 6.46067816,17.6848514 C6.64654023,17.8594595 6.87906897,17.9662973 7.12125287,18.0069595 C7.11722989,18.0109459 7.1124023,18.0133378 7.10837931,18.0173243 C6.61998851,18.4654054 6.61516092,19.196527 7.09872414,19.6509865 C7.3553908,19.8917703 7.69895402,20.0025946 8.03849425,19.9882432 C7.6715977,20.4387162 7.70297701,21.0797432 8.14148276,21.4927432 C8.48102299,21.8124595 8.97021839,21.9041486 9.40067816,21.7781757 C9.13355172,22.2158919 9.19309195,22.7803784 9.59297701,23.1567027 C10.0765402,23.6103649 10.8634368,23.6143514 11.3526322,23.1662703 C11.3687241,23.1511216 11.3799885,23.1343784 11.3944713,23.1184324 C15.7240115,26.4064865 22.0481494,26.373 26.4911379,23.0331216 C26.5048161,23.0466757 26.5144713,23.0634189 26.5297586,23.076973 C27.0133218,23.5306351 27.8002184,23.5354189 28.2886092,23.0865405 C28.7086092,22.7014459 28.7681494,22.1090541 28.4720575,21.660973 C28.9161954,21.8228243 29.4391839,21.7407027 29.8004483,21.4098243 C30.255046,20.9920405 30.2856207,20.3326757 29.8994138,19.8774189 C30.2598736,19.9148919 30.6340115,19.8112432 30.9115977,19.5561081 C31.4007931,19.108027 31.4048161,18.3769054 30.9220575,17.9232432 C30.9148161,17.9160676 30.9051609,17.9112838 30.8987241,17.9041081 C31.1618276,17.8746081 31.4168851,17.7709595 31.6204483,17.5843919 C32.1088391,17.1355135 32.1136667,16.4043919 31.6317126,15.9507297 C31.5761954,15.8989054 31.5166552,15.8558514 31.4555057,15.8159865"/>
    <path stroke="#D3D3D3" stroke-linecap="round" stroke-linejoin="round" stroke-width="1.28" d="M31.4555057,15.8159865 C31.6268851,15.7617703 31.7894138,15.6748649 31.927,15.5488919 C32.4153908,15.1008108 32.4202184,14.3688919 31.9374598,13.9152297 C31.8296437,13.8131757 31.704931,13.7382297 31.572977,13.6816216 C31.6638966,13.6337838 31.7515977,13.5771757 31.8296437,13.5062162 C32.3180345,13.0573378 32.3228621,12.3262162 31.8401034,11.8725541 C31.6727471,11.7146892 31.4683793,11.6158243 31.2527471,11.5663919 C31.2768851,11.5472568 31.3042414,11.5321081 31.3267701,11.5113784 C31.8151609,11.0625 31.8199885,10.3313784 31.3372299,9.87771622 C31.1038966,9.65845946 30.8005632,9.54763514 30.4932069,9.53806757 C30.9003333,9.0867973 30.8834368,8.41547297 30.4288391,7.98812162 C30.1198736,7.69710811 29.687,7.59345946 29.2863103,7.67159459 C29.5783793,7.22909459 29.5244713,6.64387838 29.1133218,6.25878378 C28.7279195,5.89681081 28.1526322,5.82585135 27.6859655,6.03633784 C27.8766552,5.61855405 27.7913678,5.11705405 27.4260805,4.77341892 C27.0020575,4.37477027 26.3422874,4.32374324 25.8571149,4.62193243 C25.9061954,4.27989189 25.7951609,3.92190541 25.5135517,3.6572027 C25.0420575,3.21390541 24.2825172,3.20354054 23.7917126,3.61972973 C23.7651609,3.3637973 23.6541264,3.11344595 23.4433218,2.91651351 C22.9605632,2.46285135 22.1736667,2.45886486 21.6844713,2.90774324 C21.6434368,2.94441892 21.6112529,2.98667568 21.5766552,3.02893243 C21.5195287,2.85512162 21.422977,2.69008108 21.2765402,2.55135135 C20.7937816,2.09768919 20.0060805,2.0937027 19.5176897,2.54258108 C19.4187241,2.63267568 19.3455057,2.73632432 19.2867701,2.84395946 C19.2304483,2.7435 19.1628621,2.64702703 19.0719425,2.56171622 C18.5891839,2.10885135 17.8014828,2.10406757 17.313092,2.55214865 C17.1537816,2.69964865 17.0507931,2.87744595 16.9936667,3.06640541 C16.9614828,3.02574324 16.9301034,2.98428378 16.8906782,2.94681081 C16.4087241,2.49394595 15.621023,2.48916216 15.1326322,2.93804054 C14.9057356,3.14533784 14.7874598,3.41482432 14.7697586,3.68909459 C14.2853908,3.25616216 13.5161954,3.25616216 13.035046,3.69786486 C12.7317126,3.97532432 12.6166552,4.36201351 12.6858506,4.72398649 C12.2014828,4.3955 11.5215977,4.42898649 11.0814828,4.83321622 C10.6896437,5.192 10.6148161,5.73097297 10.8465402,6.1647027 C10.3718276,5.90318919 9.75067816,5.95660811 9.34113793,6.33293243 C8.91067816,6.72839189 8.85596552,7.34071622 9.1786092,7.79198649 C8.76021839,7.68116216 8.29355172,7.77125676 7.96205747,8.07582432 C7.4953908,8.50397297 7.47527586,9.18805405 7.89527586,9.64331081 C7.5678046,9.63454054 7.23631034,9.74377027 6.98527586,9.97418919 C6.49608046,10.4222703 6.49205747,11.1541892 6.97401149,11.6078514 C6.99734483,11.6285811 7.02228736,11.6437297 7.04562069,11.6620676 C6.81309195,11.7043243 6.59102299,11.807973 6.40998851,11.9738108 C5.9215977,12.4218919 5.91677011,13.1538108 6.39952874,13.6066757 C6.47033333,13.6736486 6.54998851,13.7286622 6.63205747,13.7749054 C6.48964368,13.8315135 6.35527586,13.9104459 6.2378046,14.0180811 C5.74941379,14.4669595 5.7453908,15.1980811 6.22814943,15.6517432 C6.35366667,15.7689459 6.49929885,15.8558514 6.6553908,15.9124595 C6.59102299,15.9531216 6.52826437,15.9985676 6.47033333,16.0511892 C5.98194253,16.4992703 5.97711494,17.2303919 6.46067816,17.6848514 C6.64654023,17.8594595 6.87906897,17.9662973 7.12125287,18.0069595 C7.11722989,18.0109459 7.1124023,18.0133378 7.10837931,18.0173243 C6.61998851,18.4654054 6.61516092,19.196527 7.09872414,19.6509865 C7.3553908,19.8917703 7.69895402,20.0025946 8.03849425,19.9882432 C7.6715977,20.4387162 7.70297701,21.0797432 8.14148276,21.4927432 C8.48102299,21.8124595 8.97021839,21.9041486 9.40067816,21.7781757 C9.13355172,22.2158919 9.19309195,22.7803784 9.59297701,23.1567027 C10.0765402,23.6103649 10.8634368,23.6143514 11.3526322,23.1662703 C11.3687241,23.1511216 11.3799885,23.1343784 11.3944713,23.1184324 C15.7240115,26.4064865 22.0481494,26.373 26.4911379,23.0331216 C26.5048161,23.0466757 26.5144713,23.0634189 26.5297586,23.076973 C27.0133218,23.5306351 27.8002184,23.5354189 28.2886092,23.0865405 C28.7086092,22.7014459 28.7681494,22.1090541 28.4720575,21.660973 C28.9161954,21.8228243 29.4391839,21.7407027 29.8004483,21.4098243 C30.255046,20.9920405 30.2856207,20.3326757 29.8994138,19.8774189 C30.2598736,19.9148919 30.6340115,19.8112432 30.9115977,19.5561081 C31.4007931,19.108027 31.4048161,18.3769054 30.9220575,17.9232432 C30.9148161,17.9160676 30.9051609,17.9112838 30.8987241,17.9041081 C31.1618276,17.8746081 31.4168851,17.7709595 31.6204483,17.5843919 C32.1088391,17.1355135 32.1136667,16.4043919 31.6317126,15.9507297 C31.5761954,15.8989054 31.5166552,15.8558514 31.4555057,15.8159865 Z"/>
    <path fill="#FEFEFE" d="M28.1295402,15.6991824 C28.2132184,16.44625 28.2333333,16.5817905 28.2333333,17.44925 C28.2333333,21.7020338 25.8670115,26.0034527 24.1186207,28.6026419 C23.223908,29.9317365 23.7187356,31.7400068 25.1702299,32.4208986 L36.2817241,37.62725 C38.425977,38.7665878 37.6149425,42.0099932 35.1850575,42.0099932 L2.98022989,42.0099932 C0.551149425,42.0099932 -0.260689655,38.7665878 1.88436782,37.62725 L12.9942529,32.4208986 C14.4473563,31.7400068 14.9405747,29.9317365 14.0466667,28.6026419 C12.2974713,26.0034527 9.93275862,21.7020338 9.93275862,17.44925 C9.93275862,15.0326419 10.2843678,13.1087635 10.8475862,11.5691824 L22.4297701,9.73619595 L26.5549425,15.5923446 L28.1295402,15.6991824 Z"/>
    <path stroke="#CDC1D9" stroke-width=".8" d="M28.1295402,15.6991824 C28.2132184,16.44625 28.2333333,16.5817905 28.2333333,17.44925 C28.2333333,21.7020338 25.8670115,26.0034527 24.1186207,28.6026419 C23.223908,29.9317365 23.7187356,31.7400068 25.1702299,32.4208986 L36.2817241,37.62725 C38.425977,38.7665878 37.6149425,42.0099932 35.1850575,42.0099932 L2.98022989,42.0099932 C0.551149425,42.0099932 -0.260689655,38.7665878 1.88436782,37.62725 L12.9942529,32.4208986 C14.4473563,31.7400068 14.9405747,29.9317365 14.0466667,28.6026419 C12.2974713,26.0034527 9.93275862,21.7020338 9.93275862,17.44925 C9.93275862,15.0326419 10.2843678,13.1087635 10.8475862,11.5691824 L22.4297701,9.73619595 L26.5549425,15.5923446 L28.1295402,15.6991824 Z"/>
    <path stroke="#D3D3D3" stroke-linecap="round" stroke-linejoin="round" stroke-width="1.28" d="M10.774046,11.762527 C10.2534713,13.2686216 9.93243678,15.1350946 9.93243678,17.4496486 C9.93243678,21.7024324 12.297954,26.0030541 14.0463448,28.6022432 C14.9410575,29.9313378 14.4470345,31.7404054 12.9947356,32.4205 L1.88404598,37.6268514 C-0.261011494,38.7661892 0.550827586,42.0103919 2.97990805,42.0103919 L35.1847356,42.0103919 C37.6146207,42.0103919 38.4256552,38.7661892 36.2814023,37.6268514 L25.1707126,32.4205 C23.7184138,31.7404054 23.2243908,29.9313378 24.1182989,28.6022432 C25.8674943,26.0030541 28.2330115,21.7024324 28.2330115,17.4496486 C28.2330115,16.3812703 28.1646207,15.4077703 28.039908,14.521973"/>
    <path stroke="#D3D3D3" stroke-linecap="round" stroke-linejoin="round" stroke-width="1.28" d="M10.0928736,10.1149919 C10.0003448,10.3940459 10.0172414,10.7073838 10.1668966,10.9928162 C10.4686207,11.5652757 11.187931,11.8004784 11.7744828,11.5174378 C12.0963218,11.3619649 12.3063218,11.0813162 12.3851724,10.7663838 C12.7247126,11.225627 13.3611494,11.3954514 13.8921839,11.1395189 C14.214023,10.9840459 14.424023,10.7033973 14.502069,10.3884649 C14.8424138,10.8469108 15.4788506,11.0183297 16.0098851,10.7623973 C16.3317241,10.606127 16.5417241,10.3262757 16.6197701,10.0105459 C16.9601149,10.4689919 17.5965517,10.6396135 18.1267816,10.3836811 C18.4486207,10.2290054 18.6586207,9.94755946 18.7374713,9.63262703 C19.0778161,10.0918703 19.7134483,10.2624919 20.2444828,10.0057622 C20.5663218,9.85028919 20.7755172,9.56964054 20.8543678,9.25470811 C21.1947126,9.71315405 21.8311494,9.88457297 22.3613793,9.62784324 C22.3694253,9.62465405 22.3750575,9.61907297 22.3814943,9.61588378 C22.3975862,9.65574865 22.4096552,9.69641081 22.4297701,9.73547838 C22.6695402,10.1907351 23.1716092,10.4275324 23.6624138,10.3661405 C23.445977,10.6970189 23.4073563,11.1283568 23.6077011,11.5086676 C23.8466667,11.963127 24.3495402,12.1999243 24.8395402,12.1393297 C24.623908,12.4702081 24.5852874,12.9007486 24.7848276,13.2810595 C25.0245977,13.7363162 25.5266667,13.9731135 26.0174713,13.9117216 C25.8002299,14.2433973 25.7632184,14.6739378 25.9627586,15.0534514 C26.2636782,15.6275054 26.9829885,15.8627081 27.5703448,15.5796676 C27.8358621,15.4505054 28.0273563,15.2384243 28.1295402,14.9904649"/>
    <path fill="#FFF" d="M17.5581724,58.382573 C14.7887471,58.382573 13.8634598,54.6855054 16.3078276,53.3867081 L28.9738046,47.451627 C30.6280575,46.6758568 31.1920805,44.6148432 30.1726552,43.0999784 C28.1780575,40.1372216 25.4826552,35.2346405 25.4826552,30.387073 C25.4826552,16.2956405 35.9126552,16.7572757 35.9126552,16.7572757 C35.9126552,16.7572757 46.3426552,16.2956405 46.3426552,30.387073 C46.3426552,35.2346405 43.6464483,40.1372216 41.6526552,43.0999784 C40.6340345,44.6148432 41.1964483,46.6758568 42.8523103,47.451627 L55.5166782,53.3867081 C57.9618506,54.6855054 57.0365632,58.382573 54.2671379,58.382573 L17.5581724,58.382573 Z"/>
    <path stroke="#ACACAC" stroke-linecap="round" stroke-linejoin="round" stroke-width="1.28" d="M17.5581724,58.382573 C14.7887471,58.382573 13.8634598,54.6855054 16.3078276,53.3867081 L28.9738046,47.451627 C30.6280575,46.6758568 31.1920805,44.6148432 30.1726552,43.0999784 C28.1780575,40.1372216 25.4826552,35.2346405 25.4826552,30.387073 C25.4826552,16.2956405 35.9126552,16.7572757 35.9126552,16.7572757 C35.9126552,16.7572757 46.3426552,16.2956405 46.3426552,30.387073 C46.3426552,35.2346405 43.6464483,40.1372216 41.6526552,43.0999784 C40.6340345,44.6148432 41.1964483,46.6758568 42.8523103,47.451627 L55.5166782,53.3867081 C57.9618506,54.6855054 57.0365632,58.382573 54.2671379,58.382573 L17.5581724,58.382573 Z"/>
    <path fill="#FEFEFE" d="M41.4288966,18.4912378 L42.2938391,15.7070757 C42.6044138,14.7096568 42.0725747,13.6524405 41.0853333,13.2856838 C37.9377471,12.1160486 31.2362529,10.3029946 27.1432644,14.0973324 C21.6510805,19.188873 21.3855632,28.229427 18.1961379,27.4401027 C18.1961379,27.4401027 18.9049885,33.2324676 24.0431494,32.7062514 C29.1797011,32.1792378 30.6472874,18.1444135 41.4288966,18.4912378"/>
    <path stroke="#ACACAC" stroke-linecap="round" stroke-linejoin="round" stroke-width="1.28" d="M41.4288966,18.4912378 L42.2938391,15.7070757 C42.6044138,14.7096568 42.0725747,13.6524405 41.0853333,13.2856838 C37.9377471,12.1160486 31.2362529,10.3029946 27.1432644,14.0973324 C21.6510805,19.188873 21.3855632,28.229427 18.1961379,27.4401027 C18.1961379,27.4401027 18.9049885,33.2324676 24.0431494,32.7062514 C29.1797011,32.1792378 30.6472874,18.1444135 41.4288966,18.4912378 Z"/>
  </g>
</svg>
