<svg xmlns="http://www.w3.org/2000/svg" width="16" height="16" viewBox="0 0 16 16">
  <path fill-rule="evenodd" d="M0,7.94661352 C0,11.4569776 2.29202861,14.4356162 5.47100893,15.4863838 C5.87126677,15.5595571 6.0171276,15.3141828 6.0171276,15.1034439 C6.0171276,14.9146569 6.010252,14.4151277 6.00632309,13.7521781 C3.78108598,14.2321946 3.31158108,12.6867758 3.31158108,12.6867758 C2.94766567,11.7686956 2.42315602,11.524297 2.42315602,11.524297 C1.69679855,11.0311094 2.47816078,11.0413536 2.47816078,11.0413536 C3.28113202,11.0974531 3.70348998,11.860406 3.70348998,11.860406 C4.4175696,13.074594 5.57610731,12.7238502 6.03186101,12.5204286 C6.10454587,12.0067525 6.31130483,11.6569844 6.5396728,11.4579532 C4.76331379,11.2574586 2.8956076,10.5759718 2.8956076,7.53098953 C2.8956076,6.66315494 3.20746493,5.95386237 3.71920562,5.39823359 C3.6371896,5.1972511 3.36265693,4.38941857 3.79778385,3.29572259 C3.79778385,3.29572259 4.46962767,3.08156891 5.99748304,4.1098968 C6.63593112,3.93379321 7.32005279,3.84549751 8.00024556,3.84257058 C8.67994721,3.84549751 9.36406888,3.93379321 10.0034992,4.1098968 C11.5303723,3.08156891 12.2012339,3.29572259 12.2012339,3.29572259 C12.6373431,4.38941857 12.3628104,5.1972511 12.2807944,5.39823359 C12.7935173,5.95386237 13.1029191,6.66315494 13.1029191,7.53098953 C13.1029191,10.5832892 11.2327573,11.2550195 9.45050493,11.4520994 C9.73780656,11.6974736 9.99318579,12.1823683 9.99318579,12.9233693 C9.99318579,13.9858447 9.98385463,14.8429472 9.98385463,15.1034439 C9.98385463,15.3161341 10.127751,15.5629718 10.5339022,15.4854082 C13.7099358,14.4326892 16,11.4564898 16,7.94661352 C16,3.60365593 12.4924674,0.0746232151 8.13783517,0.00116792798 C8.09173843,0.000390353833 8.04554676,0 7.99926333,0 C3.58218484,0 0,3.55768277 0,7.94661352 Z"/>
</svg>
